<?xml version="1.0" encoding="UTF-8"?>
<svg width="729px" height="729px" viewBox="0 0 729 729" version="1.1" xmlns="http://www.w3.org/2000/svg" xmlns:xlink="http://www.w3.org/1999/xlink">
    <title>Logo - Green</title>
    <g id="limegorilla-logo" stroke="none" stroke-width="1" fill="none" fill-rule="evenodd">
        <g id="Logo---Green" transform="translate(-0.000118, 0.000000)" fill="#57FF60">
            <g id="Logo" transform="translate(0.000000, 0.000000)">
                <g id="Left-leg" transform="translate(0.000000, 292.571457)">
                    <path d="M157.230815,112.22944 C195.09738,112.578677 225.659972,97.7922057 225.494946,79.2029306 C225.328579,60.6136556 209.912903,16.7090309 157.239658,15.1825703 C104.566413,13.6561097 88.2016182,59.3489539 88.3660715,77.938229 C88.5330112,96.527504 119.364251,111.880202 157.230815,112.22944 Z" id="Oval" transform="translate(156.930509, 63.690371) rotate(14.000000) translate(-156.930509, -63.690371) "></path>
                    <polygon id="Rectangle" points="87.3865235 58.9299732 219.599048 95.7253194 142.981057 436.3669 9.46233966e-14 436.3669"></polygon>
                </g>
                <path d="M547.125621,474.254727 C610.430192,489.491902 690.279875,444.695812 709.088825,393.3642 L631.651248,729 L490.328317,729 L547.125621,474.254727 Z" id="Right-leg"></path>
                <path d="M509.125419,0.732956933 L629.355917,75.8689408 L389.718383,330.965755 L300.724309,728.5 L160.406956,728.5 L263.6791,272.284517 C267.982975,258.090996 267.980438,258.08416 275.669511,249.575192 C280.836608,243.857121 358.655287,160.909749 509.125419,0.732956933 L509.125419,0.732956933 Z" id="Main-body" stroke="#57FF60"></path>
                <ellipse id="Head" stroke="#57FF60" opacity="0.420639765" cx="556.23803" cy="287" rx="172.263338" ry="172.5"></ellipse>
            </g>
        </g>
    </g>
</svg>